<svg xmlns="http://www.w3.org/2000/svg" width="20" height="13.81" viewBox="0 0 20 13.81">
  <defs>
    <style>
      .cls-1 {
        fill: #c6cacc;
        fill-rule: evenodd;
      }
    </style>
  </defs>
  <path class="cls-1" d="M451,2699.28a0.1,0.1,0,0,1-.038-0.03,3.636,3.636,0,0,0-2.637-.94l-0.031-.07h0.018a3.205,3.205,0,0,0,1.621-.63,0.205,0.205,0,0,0-.212-0.3,5.319,5.319,0,0,0-1.265.29q0.72-.435.561-0.6a2.527,2.527,0,0,0-1.522.69,0.751,0.751,0,0,0,.225-0.52,3.959,3.959,0,0,0-.673.53,10.267,10.267,0,0,0-.979,1.19l-0.013.03a10.247,10.247,0,0,0-1.359,2.98l-0.1.07-0.019.02a4.971,4.971,0,0,0-1.4-1.15,16.935,16.935,0,0,0-2.307-1.16,19.886,19.886,0,0,0-2.936-1.16,2.763,2.763,0,0,0,1.615,2.49v0.02a3.407,3.407,0,0,0-1.1.15q0.1,1.455,2.182,2.01l-0.006.02a1.638,1.638,0,0,0-1.34.52,2.431,2.431,0,0,0,2.425,1.21,1.575,1.575,0,0,0-.53.37,0.737,0.737,0,0,0-.212.74,1.353,1.353,0,0,0,1.359.6h0l0.037,0.04c-0.006.01-.012,0.01-0.018,0.02a5.213,5.213,0,0,1-4.134,1.51l-0.025.01a5.372,5.372,0,0,1-3.179-1.34,9.782,9.782,0,0,0,4.551,3.39,11.389,11.389,0,0,0,6.465.14h0.037a10.2,10.2,0,0,0,5.318-3.5,6.889,6.889,0,0,0,1.266-2.66,2.665,2.665,0,0,0,2.363-.89l-0.012-.02a4.945,4.945,0,0,1-2.127-.12v-0.11h0.007c1.153-.12,1.833-0.47,2.051-1.06a3.371,3.371,0,0,1-2.382.03A4.77,4.77,0,0,0,451,2699.28Z" transform="translate(-435 -2697)"/>
</svg>
